<svg width="50" height="48" viewBox="0 0 50 48" fill="none" xmlns="http://www.w3.org/2000/svg">
<path d="M40.625 4.875H14.0625C12.509 4.87669 11.0197 5.46986 9.92124 6.52439C8.82277 7.57891 8.20488 9.00868 8.20312 10.5V43.5C8.20313 43.7984 8.32659 44.0845 8.54636 44.2955C8.76613 44.5065 9.0642 44.625 9.375 44.625H37.5C37.8108 44.625 38.1089 44.5065 38.3286 44.2955C38.5484 44.0845 38.6719 43.7984 38.6719 43.5C38.6719 43.2016 38.5484 42.9155 38.3286 42.7045C38.1089 42.4935 37.8108 42.375 37.5 42.375H10.5469V42C10.5479 41.1052 10.9186 40.2473 11.5777 39.6146C12.2368 38.9819 13.1304 38.626 14.0625 38.625H40.625C40.9358 38.625 41.2339 38.5065 41.4536 38.2955C41.6734 38.0845 41.7969 37.7984 41.7969 37.5V6C41.7969 5.70163 41.6734 5.41548 41.4536 5.2045C41.2339 4.99353 40.9358 4.875 40.625 4.875ZM23.0473 7.125H33.2035V21.7504L28.827 18.5998C28.6241 18.4538 28.3773 18.3749 28.1238 18.375C27.8702 18.375 27.6235 18.454 27.4207 18.6L23.0473 21.7496V7.125ZM39.4531 36.375H14.0625C12.794 36.3738 11.5597 36.7697 10.5469 37.5028V10.5C10.5479 9.6052 10.9186 8.74733 11.5777 8.11461C12.2368 7.48189 13.1304 7.12599 14.0625 7.125H20.7035V24C20.7035 24.209 20.7641 24.4138 20.8785 24.5915C20.9929 24.7693 21.1567 24.913 21.3514 25.0064C21.546 25.0998 21.764 25.1394 21.9808 25.1206C22.1976 25.1018 22.4046 25.0254 22.5787 24.9L28.1242 20.9062L33.6725 24.9C33.8466 25.0254 34.0536 25.1017 34.2703 25.1205C34.4871 25.1392 34.705 25.0997 34.8997 25.0062C35.0943 24.9128 35.258 24.7692 35.3724 24.5914C35.4869 24.4137 35.5475 24.2089 35.5475 24V7.125H39.4531V36.375Z" fill="black"/>
</svg>
