<svg width="35" height="35" viewBox="0 0 35 35" fill="none" xmlns="http://www.w3.org/2000/svg">
<path d="M10.5729 3.15H10.2083C10.4089 3.15 10.5729 2.9925 10.5729 2.8V3.15H24.4271V2.8C24.4271 2.9925 24.5911 3.15 24.7917 3.15H24.4271V6.3H27.7083V2.8C27.7083 1.25563 26.4004 0 24.7917 0H10.2083C8.59961 0 7.29167 1.25563 7.29167 2.8V6.3H10.5729V3.15ZM33.5417 6.3H1.45833C0.651693 6.3 0 6.92562 0 7.7V9.1C0 9.2925 0.164063 9.45 0.364583 9.45H3.11719L4.24284 32.3312C4.31576 33.8231 5.60091 35 7.15495 35H27.8451C29.4036 35 30.6842 33.8275 30.7572 32.3312L31.8828 9.45H34.6354C34.8359 9.45 35 9.2925 35 9.1V7.7C35 6.92562 34.3483 6.3 33.5417 6.3ZM27.4941 31.85H7.50586L6.40299 9.45H28.597L27.4941 31.85Z" fill="black"/>
</svg>
