<svg width="46" height="40" viewBox="0 0 46 40" fill="none" xmlns="http://www.w3.org/2000/svg">
<path d="M19.1667 29.9C22.5687 29.8994 25.8727 28.9123 28.5526 27.096L36.9783 34.3983L39.6884 32.0495L31.2628 24.7472C33.3596 22.4244 34.4992 19.5603 34.5 16.6111C34.5 9.28393 27.6211 3.3222 19.1667 3.3222C10.7123 3.3222 3.83334 9.28393 3.83334 16.6111C3.83334 23.9383 10.7123 29.9 19.1667 29.9ZM19.1667 6.64443C25.5089 6.64443 30.6667 11.1145 30.6667 16.6111C30.6667 22.1077 25.5089 26.5778 19.1667 26.5778C12.8244 26.5778 7.66668 22.1077 7.66668 16.6111C7.66668 11.1145 12.8244 6.64443 19.1667 6.64443Z" fill="#FFFBFB"/>
<path d="M21.873 14.2623C22.5994 14.8935 23 15.7274 23 16.6111H26.8333C26.835 15.7381 26.6371 14.8734 26.2508 14.0671C25.8646 13.2608 25.2978 12.5288 24.5832 11.9135C21.6813 9.40189 16.6501 9.40189 13.7502 11.9135L16.4565 14.2656C17.9132 13.0065 20.424 13.0098 21.873 14.2623Z" fill="#FFFBFB"/>
</svg>
