<svg width="62" height="62" viewBox="0 0 62 62" fill="none" xmlns="http://www.w3.org/2000/svg">
<path d="M31 5.16675C16.9957 5.16675 5.16666 16.9958 5.16666 31.0001C5.16666 39.2383 9.27932 46.7016 15.5 51.4704V51.6668H15.7635C20.0725 54.883 25.3502 56.8334 31 56.8334C36.6497 56.8334 41.9275 54.883 46.2365 51.6668H46.5V51.4704C52.7207 46.7016 56.8333 39.2409 56.8333 31.0001C56.8333 16.9958 45.0042 5.16675 31 5.16675ZM20.8578 48.8948C21.2385 47.1728 22.1948 45.6319 23.5689 44.5264C24.9431 43.4209 26.653 42.8167 28.4167 42.8137H33.5833C35.3468 42.8172 37.0565 43.4215 38.4306 44.5269C39.8046 45.6324 40.761 47.173 41.1422 48.8948C38.1248 50.6437 34.658 51.6668 31 51.6668C27.342 51.6668 23.8752 50.6437 20.8578 48.8948ZM45.4925 45.5727C44.5071 43.2267 42.8516 41.2234 40.7333 39.8136C38.615 38.4039 36.1279 37.6502 33.5833 37.647H28.4167C25.8721 37.6502 23.385 38.4039 21.2667 39.8136C19.1484 41.2234 17.4929 43.2267 16.5075 45.5727C12.7177 41.8036 10.3333 36.6214 10.3333 31.0001C10.3333 19.7962 19.7961 10.3334 31 10.3334C42.2039 10.3334 51.6667 19.7962 51.6667 31.0001C51.6667 36.6214 49.2822 41.8036 45.4925 45.5727Z" fill="white"/>
<path d="M31 15.5C25.11 15.5 20.6667 19.9433 20.6667 25.8333C20.6667 31.7233 25.11 36.1667 31 36.1667C36.89 36.1667 41.3333 31.7233 41.3333 25.8333C41.3333 19.9433 36.89 15.5 31 15.5ZM31 31C27.9568 31 25.8333 28.8765 25.8333 25.8333C25.8333 22.7902 27.9568 20.6667 31 20.6667C34.0432 20.6667 36.1667 22.7902 36.1667 25.8333C36.1667 28.8765 34.0432 31 31 31Z" fill="white"/>
</svg>
